<?xml version="1.0" encoding="UTF-8"?>
<svg width="160px" height="50px" viewBox="0 0 160 50" version="1.1" xmlns="http://www.w3.org/2000/svg" xmlns:xlink="http://www.w3.org/1999/xlink">
    <title>сlients-center-black-zapp360</title>
    <g id="Symbols" stroke="none" stroke-width="1" fill="none" fill-rule="evenodd">
        <g id="сlients-center-black-zapp360">
            <rect id="bounding_box" x="0" y="0" width="160" height="50"></rect>
            <g id="Zapp360" transform="translate(15.000000, 10.000000)" fill-rule="nonzero">
                <path d="M30.0098119,5.73078233 C25.5514546,5.72361345 21.627663,8.65983799 20.3921882,12.927789 C19.1567134,17.19574 20.9084737,21.7628034 24.685936,24.1221392 C28.4633983,26.4814749 33.3526203,26.062251 36.6699307,23.0945775 L36.6699307,23.9772145 C36.6351952,24.5916762 36.9444813,25.1748667 37.4735523,25.4925253 C38.0026234,25.8101839 38.6646607,25.8101839 39.1937317,25.4925253 C39.7228028,25.1748667 40.0320888,24.5916762 39.9973534,23.9772145 L39.9973534,15.6814772 C39.9799846,10.1930512 35.5185684,5.74810015 30.0098119,5.73078233 L30.0098119,5.73078233 Z M30.0098119,22.3170163 C27.3160454,22.3170163 24.8875244,20.7003191 23.8566646,18.2207881 C22.8258047,15.7412571 23.3956162,12.8871934 25.3003968,10.9894425 C27.2051774,9.09169164 30.0698132,8.52398308 32.558529,9.55103846 C35.0472448,10.5780938 36.6699307,12.9976522 36.6699307,15.6814772 C36.6670227,19.3449835 33.6868888,22.3141191 30.0098119,22.3170163 L30.0098119,22.3170163 Z" id="Shape" fill="#000000"></path>
                <path d="M55.0127397,5.73076923 C49.4951808,5.73076923 45.0174239,10.2009132 45,15.7265471 L45,29.063047 C45,29.9841046 45.7455698,30.7307692 46.6652767,30.7307692 C47.5849836,30.7307692 48.3305534,29.9841046 48.3305534,29.063047 L48.3305534,23.1732434 C51.6401126,26.1646983 56.5293008,26.5953531 60.3094635,24.2283829 C64.0896262,21.8614126 65.8439763,17.2708688 64.6077643,12.9811757 C63.3715524,8.69148266 59.4445918,5.74300194 54.9863904,5.75715724 L55.0127397,5.73076923 Z M55.0127397,22.3921583 C51.3368225,22.3921583 48.3569027,19.4078625 48.3569027,15.7265471 C48.3569027,12.0452318 51.3368225,9.060936 55.0127397,9.060936 C58.688657,9.060936 61.6685767,12.0452318 61.6685767,15.7265471 C61.6656706,19.4066564 58.6874526,22.389248 55.0127397,22.3921583 L55.0127397,22.3921583 Z" id="Shape" fill="#000000"></path>
                <path d="M77.9863904,5.73076923 C72.4791176,5.74525595 68.0173725,10.2111953 68,15.7265472 L68,29.0630472 C68,29.9841047 68.7455698,30.7307692 69.6652767,30.7307692 C70.5849836,30.7307692 71.3305533,29.9841047 71.3305534,29.0630472 L71.3305534,23.1732435 C74.6401126,26.1646984 79.5293008,26.5953533 83.3094635,24.228383 C87.0896262,21.8614127 88.8439763,17.2708688 87.6077643,12.9811758 C86.3715524,8.69148267 82.4445918,5.74300194 77.9863904,5.75715724 L77.9863904,5.73076923 Z M77.9863904,22.3921584 C74.3104731,22.3921584 71.3305534,19.4078626 71.3305534,15.7265472 C71.3305534,12.0452318 74.3104731,9.06093602 77.9863904,9.06093602 C81.6623077,9.06093602 84.6422274,12.0452318 84.6422274,15.7265472 C84.6393213,19.4066564 81.6611033,22.3892481 77.9863904,22.3921584 Z" id="Shape" fill="#000000"></path>
                <path d="M16.2845282,22.3952385 L4.92767054,22.3952385 L17.3539837,9.50172337 C17.9912381,8.86252962 18.1745897,7.91528205 17.8199091,7.09461738 C17.4652285,6.27395271 16.6409832,5.73829174 15.7253712,5.73341809 L2.85390399,5.73341809 C2.21898478,5.69865309 1.61637792,6.00820224 1.28814342,6.5377233 C0.959908914,7.06724437 0.959908914,7.7298448 1.28814342,8.25936586 C1.61637792,8.78888692 2.21898478,9.09843607 2.85390399,9.06367108 L13.0761616,9.06367108 L0.644419736,21.9624639 C0.00716537004,22.6016577 -0.176186198,23.5489053 0.178494386,24.3695699 C0.53317497,25.1902346 1.3574203,25.7258956 2.27303221,25.7307692 L16.2845282,25.7307692 C17.2319571,25.7307692 18,24.9840852 18,24.0630039 C18,23.1419225 17.2319571,22.3952385 16.2845282,22.3952385 L16.2845282,22.3952385 Z" id="Path" fill="#000000"></path>
                <path d="M109.994701,5.32394801 C109.583551,5.32524697 109.174204,5.38057211 108.776375,5.48861054 C109.403232,4.58331032 110.193174,3.81342031 111.102269,3.22175635 L111.692973,2.83754378 C112.178344,2.48363895 112.312048,1.79595546 111.997062,1.27351754 C111.682075,0.751079612 111.02892,0.577201547 110.511566,0.878059652 L109.920863,1.26227223 C106.850806,3.25401947 104.989306,6.75684593 105.000046,10.5217953 C104.99796,12.6273455 106.215359,14.5267014 108.084165,15.3334864 C109.952971,16.1402714 112.104788,15.695445 113.535422,14.2065953 C114.966057,12.7177456 115.39349,10.4783676 114.618251,8.53351678 C113.843012,6.58866592 112.017922,5.32172814 109.994701,5.32394801 L109.994701,5.32394801 Z M109.994701,13.4088783 C108.463244,13.4058483 107.223841,12.1119186 107.225779,10.5181431 C107.227721,8.92436752 108.470271,7.63370992 110.001729,7.63471741 C111.533188,7.63572608 112.774171,8.92801845 112.774171,10.5217953 C112.771262,12.1171747 111.527702,13.4088783 109.994701,13.4088783 L109.994701,13.4088783 Z" id="Shape" fill="#000000"></path>
                <path d="M99.8632494,5.72885785 L101.975018,2.54611702 C102.324908,2.01969089 102.197269,1.29862604 101.68993,0.935573549 C101.18259,0.572521063 100.487669,0.704961519 100.137779,1.2313876 L97.0809937,5.84389667 C96.8481635,6.19763415 96.8229642,6.65597325 97.0155132,7.03489073 C97.2080622,7.41380821 97.5867807,7.65116013 97.9996132,7.65164964 C99.5319179,7.65166113 100.774632,8.93951 100.776567,10.5294602 C100.778502,12.1194103 99.5389255,13.4105113 98.0066257,13.4145377 C96.4743259,13.4185642 95.2284632,12.1339943 95.2226369,10.5440544 C95.1823549,9.93799098 94.6967953,9.46771405 94.1113185,9.46771405 C93.5258417,9.46771405 93.040282,9.93799098 93,10.5440544 C93.0006665,13.1542887 94.8703397,15.3575094 97.3656278,15.688505 C99.8609159,16.0195006 102.204621,14.3751772 102.838105,11.8490619 C103.47159,9.32294658 102.197544,6.70183867 99.8632494,5.72885785 L99.8632494,5.72885785 Z" id="Path" fill="#000000"></path>
                <path d="M129.830562,7.56849618 C129.18776,7.56849618 128.666667,8.08948652 128.666667,8.73216067 C128.668909,10.6220204 127.531985,12.3270392 125.786278,13.0518111 C124.040572,13.776583 122.030063,13.3782969 120.692672,12.0427567 C119.35528,10.7072164 118.954528,8.69758077 119.677372,6.95136202 C120.400215,5.20514326 122.104221,4.06642151 123.994458,4.06642018 C124.430461,4.09648337 124.846846,3.88097017 125.073994,3.50767238 C125.301142,3.13437459 125.301142,2.66559552 125.073994,2.29229772 C124.846846,1.91899993 124.430461,1.70348674 123.994458,1.73354993 C120.129187,1.73660971 116.997961,4.87134807 117,8.73585192 C117.002041,12.6003558 120.136575,15.7317881 124.001846,15.7307692 C127.867117,15.7297499 131,12.5966651 131,8.73216067 C130.996949,8.08859122 130.474267,7.56848895 129.830562,7.56849618 L129.830562,7.56849618 Z" id="Path" fill="#000000"></path>
                <circle id="Oval" fill="#F62A00" cx="95" cy="2.73076923" r="2"></circle>
                <circle id="Oval" fill="#F62A00" cx="124" cy="8.73076923" r="2"></circle>
            </g>
        </g>
    </g>
</svg>